<?xml version="1.0" encoding="iso-8859-1"?>
<!-- Uploaded to: SVG Repo, www.svgrepo.com, Generator: SVG Repo Mixer Tools -->
<svg height="800px" width="800px" version="1.1" id="Layer_1" xmlns="http://www.w3.org/2000/svg" xmlns:xlink="http://www.w3.org/1999/xlink" 
	 viewBox="0 0 512.001 512.001" xml:space="preserve">
<path style="fill:#F0DF9E;" d="M435.26,187.545c23.847,0,43.169,23.006,43.169,51.391s-19.322,51.391-43.169,51.391
	c-2.866,0-5.654-0.332-8.366-0.963c-2.346-31.295-10.159-60.764-21.856-87.112C412.818,193.156,423.497,187.545,435.26,187.545z"/>
<path style="fill:#A3875E;" d="M339.41,115.124c26.451,21.037,49.662,51.178,65.628,87.127
	c11.697,26.349,19.509,55.818,21.856,87.112c0.476,6.496,0.73,13.081,0.73,19.731c0,125.081-44.862,192.296-171.624,192.296
	S84.375,434.176,84.375,309.095c0-6.651,0.255-13.235,0.73-19.731c2.346-31.295,10.159-60.775,21.867-87.124
	c31.627-71.199,91.672-119.625,149.028-119.625C284.401,82.616,313.465,94.491,339.41,115.124 M340.202,344.319
	c22.453-11.995,37.747-35.655,37.747-62.888c0-39.363-31.914-71.277-71.277-71.277c-19.819,0-37.757,8.101-50.671,21.17
	c-12.914-13.069-30.852-21.17-50.671-21.17c-39.363,0-71.277,31.915-71.277,71.277c0,27.234,15.294,50.893,37.747,62.888
	c-19.189,12.305-30.941,28.816-30.941,46.975c0,11.166,4.448,21.722,12.35,31.052C172.185,444.788,211.083,460.17,256,460.17
	s83.815-15.382,102.793-37.824c7.901-9.328,12.35-19.886,12.35-31.052C371.143,373.135,359.391,356.624,340.202,344.319z"/>
<g>
	<path style="fill:#F0DF9E;" d="M377.949,281.43c0,27.234-15.294,50.893-37.747,62.888c19.189,12.305,30.941,28.816,30.941,46.975
		c0,11.166-4.448,21.722-12.35,31.052l-0.984-0.819c0,0-48.835-24.367-101.808-24.367s-101.808,24.367-101.808,24.367l-0.984,0.819
		c-7.901-9.328-12.35-19.886-12.35-31.052c0-18.16,11.752-34.67,30.941-46.975c-22.453-11.995-37.747-35.655-37.747-62.888
		c0-39.363,31.915-71.277,71.277-71.277c19.819,0,37.757,8.101,50.671,21.17c12.914-13.069,30.852-21.17,50.671-21.17
		C346.033,210.153,377.949,242.068,377.949,281.43z"/>
	<path style="fill:#F0DF9E;" d="M357.808,421.527l0.984,0.819c-18.978,22.442-57.876,37.824-102.793,37.824
		s-83.815-15.382-102.793-37.824l0.984-0.819c0,0,48.835-24.367,101.808-24.367S357.808,421.527,357.808,421.527z"/>
	<path style="fill:#F0DF9E;" d="M76.74,187.545c11.775,0,22.431,5.611,30.233,14.696c-11.708,26.349-19.521,55.828-21.867,87.124
		c-2.7,0.631-5.5,0.963-8.366,0.963c-23.847,0-43.169-23.006-43.169-51.391S52.893,187.545,76.74,187.545z"/>
</g>
<path d="M73.902,300.849c-0.083,2.767-0.136,5.523-0.136,8.247c0,67.972,13.326,116.987,40.738,149.849
	c29.782,35.701,76.065,53.056,141.495,53.056s111.713-17.355,141.495-53.056c27.413-32.86,40.738-81.877,40.738-149.849
	c0-2.723-0.053-5.479-0.136-8.247c28.339-1.707,50.941-28.823,50.941-61.912c0-34.187-24.124-61.999-53.778-61.999
	c-9.53,0-18.651,2.831-26.672,8.121c-10.808-21.246-24.12-40.399-39.706-57.061c-4.003-4.28-10.716-4.503-14.994-0.501
	c-4.28,4.003-4.503,10.716-0.501,14.994c16.818,17.98,31.326,40.134,41.955,64.066c11.741,26.447,18.798,54.575,20.972,83.583l0,0
	c0.005,0.075,0.007,0.151,0.015,0.225c0.455,6.289,0.687,12.59,0.687,18.732c0,62.798-11.715,107.368-35.814,136.257
	c-25.501,30.57-66.455,45.43-125.202,45.43s-99.701-14.861-125.202-45.43c-24.099-28.889-35.814-73.459-35.814-136.257
	c0-6.206,0.236-12.574,0.699-18.911c0.002-0.031,0.005-0.062,0.007-0.092c2.183-29.022,9.24-57.13,20.978-83.543
	c30.109-67.782,86.101-113.323,139.331-113.323c17.099,0,34.672,4.712,52.232,14.009c5.18,2.741,11.6,0.765,14.34-4.413
	c2.741-5.178,0.766-11.598-4.412-14.34c-16.836-8.911-33.846-14.239-50.716-15.905c4.806-29.095,30.121-51.36,60.552-51.36h5.09
	c5.859,0,10.609-4.75,10.609-10.609c0-5.858-4.75-10.609-10.609-10.609h-5.09c-32.438,0-60.555,18.805-74.061,46.08
	c-10.846-13.779-27.659-22.653-46.515-22.653h-3.43c-5.859,0-10.609,4.75-10.609,10.609s4.75,10.609,10.609,10.609h3.43
	c17.485,0,32.24,11.883,36.633,27.995c-54.073,5.647-108.291,48.946-140.636,112.421c-8.032-5.292-17.154-8.124-26.676-8.124
	c-29.653,0-53.778,27.813-53.778,61.999C22.962,272.025,45.563,299.142,73.902,300.849z M467.82,238.936
	c0,21.905-13.861,39.824-31.174,40.738c-2.777-25.859-9.155-51.001-19.025-74.95c5.234-4.267,11.33-6.57,17.638-6.57
	C453.213,198.153,467.82,216.448,467.82,238.936z M76.74,198.153c6.298,0,12.394,2.305,17.642,6.572
	c-9.869,23.932-16.249,49.071-19.028,74.949c-17.312-0.913-31.174-18.833-31.174-40.738C44.18,216.448,58.786,198.153,76.74,198.153
	z"/>
<path d="M346.009,106.818c-0.831-0.661-1.664-1.313-2.502-1.957c-4.644-3.572-11.304-2.703-14.877,1.941
	c-3.572,4.644-2.702,11.305,1.941,14.877c0.747,0.575,1.491,1.157,2.232,1.746c1.952,1.552,4.282,2.305,6.595,2.305
	c3.122,0,6.216-1.373,8.31-4.007C351.357,117.138,350.595,110.464,346.009,106.818z"/>
<path d="M388.557,281.43c0-45.152-36.734-81.885-81.886-81.885c-18.636,0-36.292,6.172-50.671,17.557
	c-14.379-11.385-32.035-17.557-50.671-17.557c-45.153,0-81.886,36.734-81.886,81.885c0,24.882,11.221,48.012,30.064,63.394
	c-15.104,13.352-23.258,29.469-23.258,46.469c0,13.319,5.14,26.428,14.859,37.902c21.691,25.649,64.183,41.583,110.894,41.583
	c46.709,0,89.197-15.93,110.887-41.575c9.725-11.481,14.864-24.589,14.864-37.908c0-17.001-8.155-33.117-23.259-46.469
	C377.336,329.441,388.557,306.311,388.557,281.43z M171.902,425.404c17.377-6.882,49.99-17.636,84.098-17.636
	c33.997,0,66.67,10.764,84.086,17.647c-19.675,14.943-50.893,24.146-84.086,24.146C222.802,449.561,191.58,440.355,171.902,425.404z
	 M334.475,353.248c16.804,10.776,26.059,24.289,26.059,38.046c0,5.967-1.699,11.827-5.048,17.498
	c-15.837-6.887-56.017-22.242-99.487-22.242s-83.651,15.355-99.487,22.242c-3.347-5.671-5.048-11.532-5.048-17.498
	c0-13.757,9.255-27.269,26.059-38.046c3.169-2.032,5.023-5.591,4.874-9.352c-0.15-3.761-2.281-7.161-5.601-8.935
	c-19.823-10.591-32.137-31.103-32.137-53.531c0-33.452,27.216-60.668,60.669-60.668c16.329,0,31.645,6.398,43.125,18.018
	c1.993,2.017,4.71,3.152,7.546,3.152s5.553-1.135,7.546-3.152c11.481-11.619,26.796-18.018,43.125-18.018
	c33.452,0,60.669,27.216,60.669,60.668c0,22.429-12.314,42.941-32.137,53.531c-3.319,1.774-5.452,5.174-5.601,8.935
	S331.306,351.217,334.475,353.248z"/>
<path d="M237.951,331.054c-5.859,0-10.609,4.749-10.609,10.609v10.956c0,5.859,4.75,10.609,10.609,10.609s10.609-4.75,10.609-10.609
	v-10.956C248.56,335.803,243.81,331.054,237.951,331.054z"/>
<path d="M274.049,331.054c-5.859,0-10.609,4.749-10.609,10.609v10.956c0,5.859,4.75,10.609,10.609,10.609s10.609-4.75,10.609-10.609
	v-10.956C284.658,335.803,279.908,331.054,274.049,331.054z"/>
<path d="M344.248,299.987c0-16.631-13.53-30.163-30.163-30.163c-16.625,0-30.151,13.53-30.151,30.163
	c0,5.859,4.75,10.609,10.609,10.609s10.609-4.749,10.609-10.609c0-4.932,4.008-8.945,8.934-8.945c4.932,0,8.945,4.012,8.945,8.945
	c0,5.859,4.75,10.609,10.609,10.609S344.248,305.847,344.248,299.987z"/>
<path d="M236.332,299.987c0-16.631-13.53-30.163-30.163-30.163c-16.631,0-30.163,13.53-30.163,30.163
	c0,5.859,4.75,10.609,10.609,10.609s10.609-4.749,10.609-10.609c0-4.932,4.012-8.945,8.945-8.945s8.945,4.012,8.945,8.945
	c0,5.859,4.75,10.609,10.609,10.609S236.332,305.847,236.332,299.987z"/>
</svg>